<svg class="icon" style="width: 1em;height: 1em;vertical-align: middle;fill: currentColor;overflow: hidden;" viewBox="0 0 950 950" version="1.1" xmlns="http://www.w3.org/2000/svg" p-id="29594"><path d="M145.408 206.336l390.144-139.264 390.144 139.264v344.576c0 147.456-81.92 278.528-210.432 335.872l-187.392 90.112-175.616-86.016c-128.512-61.44-206.848-188.416-206.848-332.288v-352.256z m65.024 45.568v306.688c0 119.296 64.512 222.72 170.496 273.408l146.944 72.192 160.256-77.312c104.96-46.592 172.032-154.112 172.032-276.992v-298.496l-325.12-116.224-324.608 116.736z m357.888 432.64h32.256c17.92 0 32.256 14.336 32.256 32.256s-14.336 32.256-32.256 32.256h-32.256v32.256c0 11.776-6.144 22.528-16.384 28.16-10.24 5.632-22.528 5.632-32.256 0-10.24-5.632-16.384-16.384-16.384-28.16V517.12c-63.488-16.384-104.96-77.312-96.256-142.336 8.192-65.024 63.488-113.664 129.024-113.664 65.536 0 120.832 48.64 129.024 113.664 8.192 65.024-33.28 125.952-96.256 142.336v36.352h97.28c17.92 0 32.256 14.336 32.256 32.256s-14.336 32.256-32.256 32.256h-97.28v66.56z m-32.768-227.328c35.84 0 65.024-29.184 65.024-65.024 0-35.84-29.184-65.024-65.024-65.024s-65.024 29.184-65.024 65.024c0 35.84 29.184 65.024 65.024 65.024z m0 0" fill="#90EE90" p-id="29595"></path></svg>