<svg class="icon" style="width: 1em;height: 1em;vertical-align: middle;fill: currentColor;overflow: hidden;" viewBox="0 0 1024 1024" version="1.1" xmlns="http://www.w3.org/2000/svg" p-id="606"><path d="M66.56 819.2a87.04 87.04 0 1 1 174.08 0 87.04 87.04 0 0 1-174.08 0z m87.04-15.36a15.36 15.36 0 1 0 0 30.72 15.36 15.36 0 0 0 0-30.72zM66.56 204.8a87.04 87.04 0 1 1 174.08 0 87.04 87.04 0 0 1-174.08 0zM153.6 189.44a15.36 15.36 0 1 0 0 30.72 15.36 15.36 0 0 0 0-30.72zM66.56 512a87.04 87.04 0 1 1 174.08 0 87.04 87.04 0 0 1-174.08 0zM153.6 496.64a15.36 15.36 0 1 0 0 30.72 15.36 15.36 0 0 0 0-30.72zM960 547.84h-614.4V476.16h614.4v71.68zM960 846.4896h-614.4v-71.68h614.4v71.68zM960 249.1904h-614.4v-71.68h614.4v71.68z" fill="#747690" p-id="607"></path></svg>