<svg class="icon" style="width: 1em;height: 1em;vertical-align: middle;fill: currentColor;overflow: hidden;" viewBox="0 0 950 950" version="1.1" xmlns="http://www.w3.org/2000/svg" p-id="19280"><path d="M91.428571 318.171429C80.457143 314.514286 73.142857 303.542857 73.142857 292.571429c0-10.971429 7.314286-21.942857 18.285714-29.257143l362.057143-179.2c36.571429-18.285714 80.457143-18.285714 113.371429 0l362.057143 179.2c14.628571 7.314286 21.942857 18.285714 21.942857 29.257143 0 10.971429-7.314286 21.942857-18.285714 29.257142l-362.057143 179.2c-36.571429 18.285714-80.457143 18.285714-113.371429 0l-365.714286-182.857142z m841.142858 160.914285c10.971429 3.657143 18.285714 14.628571 18.285714 29.257143 0 10.971429-7.314286 21.942857-18.285714 29.257143l-362.057143 182.857143c-36.571429 18.285714-80.457143 18.285714-113.371429 0l-362.057143-182.857143c-14.628571-7.314286-21.942857-18.285714-21.942857-29.257143 0-10.971429 7.314286-21.942857 18.285714-29.257143L182.857143 438.857143l270.628571 138.971428c36.571429 18.285714 80.457143 18.285714 113.371429 0L841.142857 438.857143l91.428572 40.228571z m0 219.428572c10.971429 3.657143 18.285714 14.628571 18.285714 29.257143 0 10.971429-7.314286 21.942857-18.285714 29.257142l-362.057143 182.857143c-36.571429 18.285714-80.457143 18.285714-113.371429 0l-362.057143-182.857143c-14.628571-7.314286-21.942857-18.285714-21.942857-29.257142 0-10.971429 7.314286-21.942857 18.285714-29.257143L182.857143 658.285714l270.628571 138.971429c36.571429 18.285714 80.457143 18.285714 113.371429 0L841.142857 658.285714l91.428572 40.228572z" fill="#F37333" p-id="19281"></path></svg>