<svg class="icon" style="width: 1em;height: 1em;vertical-align: middle;fill: currentColor;overflow: hidden;" viewBox="0 0 950 950" version="1.1" xmlns="http://www.w3.org/2000/svg" p-id="41771"><path d="M325.5 605.1c0 20.6 16.7 37.3 37.3 37.3 20.6 0 37.3-16.7 37.3-37.3 0-20.6-16.7-37.3-37.3-37.3-20.6 0-37.3 16.7-37.3 37.3zM847.6 562.5c64.3-16.6 111.9-74.5 111.9-143.9-1.3-82.4-69.2-148.1-151.6-146.7-80.5 1.3-145.4 66.2-146.7 146.7 0 69.4 47.6 127.2 111.8 143.9v340.9l74.6-74.6v-37.3h74.6v-37.3h-74.6v-74.6h74.6v-37.3h-74.6v-79.8z m-37.2-69.3c-41.2 0-74.6-33.4-74.6-74.6 0-41.2 33.4-74.6 74.5-74.6 41.2 0 74.6 33.4 74.6 74.6 0 41.2-33.4 74.6-74.5 74.6zM176.4 418.6c0.1 0 0.1-0.1 0.2-0.1 37.1 63.5 98.3 111.9 167.6 111.9S474.7 482 511.8 418.5c0.1 0 0.1 0.1 0.2 0.1 20.6 0 74.6-54 74.6-74.6 0-20.6-16.7-37.3-37.3-37.3-0.3 0-0.6 0.2-1 0.2 0.6-6.3 1-12.6 1-18.8C549.3 174.8 457.5 83 344.2 83s-205.1 91.8-205.1 205.1c0 6.2 0.4 12.5 1 18.8-0.4 0-0.6-0.2-1-0.2-20.6 0-37.3 16.7-37.3 37.3 0 20.6 53.9 74.6 74.6 74.6z" fill="#00BFFF" p-id="41772"></path><path d="M468.1 594.3l-67.9 271.8h-26.7l26.7-186.4h-74.6l26.6 186.4h-26.6l-67.9-271.8c-99 45.8-193.1 143.8-193.1 234.5 0 123.6 174.8 111.9 298.3 111.9s298.3 11.7 298.3-111.9c0-90.7-94.2-188.6-193.1-234.5z" fill="#00BFFF" p-id="41773"></path></svg>