<svg class="icon" style="width: 1em;height: 1em;vertical-align: middle;fill: currentColor;overflow: hidden;" viewBox="0 0 950 950" version="1.1" xmlns="http://www.w3.org/2000/svg" p-id="14172"><path d="M877 588.2c-44.9 6.7-84.2 33.6-106.7 73-22.8 39.2-26.4 86.6-9.8 128.8-38.2 34.3-83.1 60.2-131.9 76.3-28.2-35.5-71.2-56.1-116.5-56-45.4-0.2-88.3 20.4-116.6 55.9-48.8-16-93.7-42-131.9-76.2 16.6-42.2 13-89.6-9.8-128.8-22.5-39.4-61.9-66.3-106.8-73-10.4-50.3-10.4-102.1 0-152.4 44.9-6.7 84.2-33.5 106.8-72.9 22.8-39.2 26.4-86.7 9.8-128.8 38.2-34.3 83.1-60.2 131.9-76.3 28.2 35.5 71.2 56.2 116.6 56 46.3 0 88.6-20.9 116.5-56 48.8 16 93.7 42 131.9 76.3-16.6 42.2-13 89.7 9.8 128.8 22.5 39.4 61.9 66.2 106.7 72.9 10.4 50.3 10.4 102.1 0 152.4m65.4-198.4c-4.7-17-20.7-28.3-38.3-27-28.3 1.9-55.3-12.5-69.3-37.1-14.3-24.5-13.3-55.1 2.5-78.7 9.7-14.6 7.9-33.9-4.3-46.5-57.8-59.7-131.1-102-211.7-122.3-17-4.3-34.7 3.9-42.5 19.6-12.5 25.5-38.5 41.6-66.8 41.5-28.4 0.1-54.3-16-66.8-41.5-7.8-15.7-25.5-23.9-42.5-19.6-80.7 20.2-154 62.5-211.8 122.2-12.2 12.6-14 32-4.3 46.6 15.8 23.6 16.7 54.1 2.5 78.6-14.1 24.6-41 39-69.3 37.1-17.6-1.3-33.6 10-38.2 27-11.3 39.8-17 80.9-16.9 122.2 0 41.5 5.7 82.7 16.9 122.2 4.8 16.9 20.7 28.2 38.2 27 28.3-1.8 55.2 12.6 69.3 37.2 14.3 24.7 13.3 54.8-2.5 78.6-9.7 14.6-7.9 34 4.3 46.6 57.8 59.7 131.1 102 211.7 122.3 17 4.3 34.7-3.8 42.5-19.6 12.5-25.5 38.5-41.6 66.8-41.5 28.6 0 54.2 15.9 66.8 41.5 7.8 15.7 25.5 23.9 42.5 19.6 80.6-20.3 153.9-62.6 211.7-122.3 12.2-12.6 14-32 4.3-46.6-15.8-23.6-16.7-54-2.5-78.6 14-24.7 41-39.2 69.3-37.2 17.5 1 33.4-10.2 38.3-27 11.2-39.8 16.9-80.9 16.9-122.2 0.1-41.4-5.6-82.6-16.8-122.1" fill="#FF6C8E" p-id="14173"></path><path d="M512 623.8c-61.7 0-111.8-50.2-111.8-111.8 0-61.7 50.2-111.8 111.8-111.8S623.8 450.3 623.8 512c0 61.6-50.2 111.8-111.8 111.8m0-298.2c-102.8 0-186.4 83.6-186.4 186.4 0 102.8 83.6 186.4 186.4 186.4S698.4 614.8 698.4 512c0-102.8-83.7-186.4-186.4-186.4" fill="#FF6C8E" p-id="14174"></path></svg>