<svg class="icon" style="width: 1em;height: 1em;vertical-align: middle;fill: currentColor;overflow: hidden;" viewBox="0 0 950 950" version="1.1" xmlns="http://www.w3.org/2000/svg" p-id="84173"><path d="M440.582 65.618c83.087 0.057 168.017 70.679 195.704 162.731 24.512 81.484-5.331 163.072-81.662 223.267-67.653 53.355-140.948 57.824-216.753 13.223-141.504-83.258-137.365-280.766 9.094-369.708C374.494 78.415 404.245 69.341 440.582 65.618 441.479 67.91 439.681 63.325 440.582 65.618zM356.365 876.579c-76.171-8.698-152.342-17.406-228.518-26.115-0.846-0.094-1.693-0.229-2.53-0.406-64.888-13.874-67.838-18.684-47.961-79.964 13.418-41.367 26.129-82.997 40.851-123.901 23.425-65.091 73.32-98.839 139.796-102.224 77.498-3.948 155.343-1.583 233.027-0.925 26.776 0.229 31.416 9.503 19.972 33.962-2.886 6.171-6.108 12.233-9.701 18.019-45.391 73.063-60.106 150.796-39.113 235.267 8.614 34.644 1.854 41.188-33.57 41.889-17.923 0.351-35.861 0.08-53.793 0.091-5.972 0.005-11.946 0-17.919 0C356.726 873.709 356.545 875.146 356.365 876.579zM499.362 686.839c13.253-3.405 26.285-7.25 39.539-10.044 20.704-4.359 23.545-14.631 10.862-30.438-8.001-9.98-16.429-19.621-26.445-31.528 10.644-14.393 21.677-29.252 32.634-44.164 10.566-14.365 21.06-28.786 32.885-44.973 13.924 10.422 26.506 20.181 39.442 29.447 20.173 14.456 33.798 10.95 43.854-12.251 5.362-12.368 8.509-25.699 13.379-40.831 25.765 0 52.16-1.15 78.315 0.879 5.907 0.456 13.318 11.121 16.024 18.546 19.871 54.576 22.087 55.387 68.674 19.063 5.958-4.647 12.257-8.859 20.008-14.426 21.962 29.485 43.166 57.962 67.577 90.741-9.424 7.451-18.829 13.539-26.585 21.278-21.857 21.803-19.161 31.461 10.142 39.15 12.311 3.229 24.681 6.227 37.639 9.481 0 29.877 0 58.684 0 88.384-14.479 4.13-28.511 7.304-41.934 12.145-23.55 8.49-26.29 22.586-8.072 39.134 8.118 7.375 16.841 14.084 25.002 20.853-29.621 28.5-58.432 56.229-89.579 86.196-6.157-5.506-15.893-14.524-25.974-23.152-18.61-15.913-34.894-9.78-39.233 14.65-1.043 5.887-1.804 11.825-2.666 17.743-0.736 5.04-1.438 10.086-2.419 16.99-28.796 0-57.308 0-88.037 0-2.74-12.682-5.046-25.936-8.522-38.866-5.041-18.74-16.255-25.67-34.363-15.247-16.265 9.358-32.242 19.225-50.902 30.398-22.343-28.866-45.009-58.148-68.483-88.478 9.363-8.071 17.962-14.966 25.983-22.482 18.865-17.688 16.27-29.52-8.752-38.333-12.728-4.484-25.937-7.619-39.991-11.668C499.362 745.78 499.362 717.029 499.362 686.839zM842.321 729.491c-0.311-64.091-51.979-115.439-115.634-114.923-63.916 0.516-114.537 52.221-114.086 116.516 0.45 64.041 51.859 114.751 116.04 114.47C792.847 845.264 842.632 794.434 842.321 729.491z" fill="#FF9900" p-id="84174"></path></svg>